<?xml version="1.0" encoding="UTF-8" standalone="no"?>
<svg width="512" height="512" viewBox="0 0 135 135" version="1.1" xmlns="http://www.w3.org/2000/svg" xmlns:svg="http://www.w3.org/2000/svg">
  <rect style="fill:#ffffff" width="128.0000" height="112.0000" x="4.0000" y="12.0000" />
  <rect style="fill:#55b2ff" width="128.0000" height="16.0000" x="4.0000" y="12.0000" />
  <path style="fill:#000000" d="m 1.6901338,127.07004 v 3e-5 C 1.3828219,126.9448 0.8768176,126.51851 0.56568825,126.12275 L -6.9341144e-6,125.40319 V 67.874657 C -6.9341144e-6,23.83623 0.07409113,10.183354 0.31607229,9.6520087 1.0219463,8.1019542 -3.7115247,8.2034435 67.877153,8.2034435 h 65.786837 l 0.90134,0.9018238 0.90133,0.9018247 c 0,0 -0.0453,38.573404 -0.0679,57.860106 -0.0226,19.286701 -0.0679,57.860102 -0.0679,57.860102 l -0.7336,0.73399 -0.73359,0.73399 m -3.69215,-5.16205 V 33.351884 H 5.291517 V 122.03323 M 130.17158,13.497852 H 5.291517 V 28.057476 H 130.17158 Z" />
  <rect style="fill:#d0ec7e;stroke:#000000;stroke-width:4.81818;stroke-linejoin:round;stroke-miterlimit:4;stroke-dasharray:none" width="58.46307" height="58.463062" x="55.0000" y="50.0000" />
</svg>
