<svg width="414" height="178" version="1.1" viewBox="0 0 109.54 47.042" xml:space="preserve" xmlns="http://www.w3.org/2000/svg"><g transform="translate(-27.312 -97.55)"><text transform="matrix(.26458 0 0 .26458 27.312 97.55)" style="font-family:sans-serif;font-size:40px;line-height:1.25;shape-inside:url(#rect546);text-align:center;white-space:pre" xml:space="preserve"/><g transform="matrix(1.0245 -.14451 .1512 .98952 -3.8249 -1.5446)" style="stroke-width:.26458" aria-label="Template"><path d="m54.697 116.6q0.54681 0.10583 0.81139 0.37041 0.28222 0.26459 0.28222 0.61736 0 0.58209-0.33514 0.84667-0.3175 0.26458-1.0231 0.21167-1.5875-0.12347-2.4871-0.15875-0.88194-0.0529-2.3283-0.0706-0.65264 3.2456-1.1994 6.5264-0.19403 1.1994-0.4057 2.7869-0.21167 1.5699-0.28222 2.54-0.03528 0.51153-0.42333 0.79375-0.38806 0.26459-0.93486 0.26459-0.58208 0-0.89958-0.28223-0.3175-0.28222-0.3175-0.74083 0-0.42333 0.12347-1.3935 0.14111-0.98778 0.3175-2.0638 0.19403-1.076 0.29986-1.8697 0.19403-1.3406 0.44097-2.6635 0.24694-1.3229 0.49389-2.5047 0.05292-0.26459 0.12347-0.59973 0.07055-0.35278 0.15875-0.77611-1.7286 0.0529-2.7164 0.28222-0.98778 0.22931-1.4111 0.65264-0.4057 0.4057-0.4057 1.0583 0 0.59972 0.35278 1.1465 0.07056 0.12347 0.07056 0.26458 0 0.33514-0.4057 0.635-0.38806 0.28222-0.81139 0.28222-0.29986 0-0.49389-0.17639-0.35278-0.29986-0.58208-0.84666-0.22931-0.56445-0.22931-1.27 0-1.4993 0.97014-2.3989 0.98778-0.91722 2.981-1.3406 2.0108-0.42334 5.1506-0.42334 1.9403 0 3.0868 0.0706 1.1642 0.0706 2.0285 0.22931z"/><path d="m59.283 127.3q0.22931 0 0.35278 0.21166 0.14111 0.21167 0.14111 0.58209 0 0.70555-0.33514 1.0936-0.65264 0.79375-1.8521 1.464-1.1818 0.67028-2.54 0.67028-1.8521 0-2.8751-1.0054t-1.0231-2.7517q0-1.2171 0.51153-2.2578 0.51153-1.0583 1.4111-1.6757 0.91722-0.61736 2.0638-0.61736 1.0231 0 1.6404 0.61736 0.61736 0.59972 0.61736 1.6404 0 1.2171-0.88194 2.099-0.86431 0.86431-2.9457 1.3758 0.44097 0.81139 1.6757 0.81139 0.79375 0 1.7992-0.54681 1.0231-0.56444 1.7639-1.464 0.21167-0.24694 0.47625-0.24694zm-4.445-2.5576q-0.65264 0-1.1113 0.75847-0.44097 0.75847-0.44097 1.8344v0.0353q1.0407-0.24694 1.6404-0.74083 0.59972-0.49389 0.59972-1.1465 0-0.33514-0.19403-0.52917-0.17639-0.21166-0.49389-0.21166z"/><path d="m59.601 131.33q-0.67028 0-0.9525-0.70556-0.26458-0.70555-0.26458-2.2578 0-2.2931 0.65264-4.3568 0.15875-0.51152 0.51153-0.74083 0.37042-0.24694 1.0231-0.24694 0.35278 0 0.49389 0.0882t0.14111 0.33514q0 0.28222-0.26458 1.27-0.17639 0.70556-0.28222 1.2347-0.10583 0.51153-0.17639 1.2876 0.47625-1.3758 1.1289-2.3283 0.67028-0.9525 1.3582-1.4111 0.70556-0.47625 1.3229-0.47625 0.61736 0 0.86431 0.28222 0.26458 0.28222 0.26458 0.8643 0 0.56445-0.33514 2.0461-0.14111 0.635-0.19403 0.9525 0.88194-2.1696 1.9579-3.1574 1.076-0.98777 2.0108-0.98777 1.1465 0 1.1465 1.1465 0 0.68792-0.38806 2.4871-0.33514 1.5346-0.33514 2.0285 0 0.70556 0.51153 0.70556 0.35278 0 0.82903-0.42334 0.49389-0.44097 1.3053-1.4111 0.21167-0.24694 0.47625-0.24694 0.22931 0 0.35278 0.21166 0.14111 0.21167 0.14111 0.58209 0 0.70555-0.33514 1.0936-0.75847 0.93486-1.6404 1.5346-0.86431 0.59973-1.9756 0.59973-0.89958 0-1.3582-0.51153-0.45861-0.52917-0.45861-1.517 0-0.49389 0.24694-1.7639 0.2293-1.1112 0.2293-1.5346 0-0.28222-0.19403-0.28222-0.2293 0-0.65264 0.59972-0.42333 0.58208-0.84667 1.5522-0.42333 0.97014-0.68792 2.0461-0.19403 0.84666-0.45861 1.1289-0.24694 0.28223-0.81139 0.28223-0.58208 0-0.88194-0.54681-0.28222-0.56444-0.28222-1.3582 0-0.67028 0.17639-1.9403 0.14111-1.1289 0.14111-1.4817 0-0.28222-0.19403-0.28222-0.26458 0-0.67028 0.635-0.40569 0.635-0.79375 1.6228-0.37042 0.98777-0.59972 1.9403-0.19403 0.82902-0.45861 1.1289-0.24694 0.28223-0.79375 0.28223z"/><path d="m80.891 127.3q0.22931 0 0.35278 0.21166 0.14111 0.21167 0.14111 0.58209 0 0.70555-0.33514 1.0936-0.75847 0.93486-1.6404 1.5346-0.86431 0.59973-1.9756 0.59973-0.93486 0-1.5169-0.67028-1.0054 0.65264-2.099 0.67028-0.22931 3.4043-1.0407 5.6797-0.81139 2.2931-2.3813 2.2931-0.9525 0-1.4111-0.68792-0.45861-0.68791-0.45861-1.905 0-1.7286 0.79375-4.0393 0.79375-2.293 2.4518-5.0624 0-2.5753-0.03528-3.5807-0.01764-0.51153 0.4057-0.81139 0.42333-0.29986 1.0583-0.29986 0.37042 0 0.52917 0.15875 0.17639 0.14111 0.19403 0.58209 0 0.44097 0.01764 0.65263 0.56444-0.70555 1.1113-1.0054 0.54681-0.3175 1.1642-0.3175 0.98778 0 1.6051 0.79375 0.635 0.79375 0.635 2.0814 0 0.93486-0.29986 1.8168-0.29986 0.88195-0.82903 1.6051 0.37042 0.10584 0.61736 0.10584 0.58208 0 1.1113-0.42334 0.52917-0.42333 1.3582-1.4111 0.21167-0.24694 0.47625-0.24694zm-6.985 2.3283q0.635-0.14111 1.1642-0.68791 0.54681-0.56445 0.86431-1.3758 0.3175-0.82903 0.3175-1.7286 0-0.52917-0.21167-0.79375-0.21167-0.28222-0.56444-0.28222-0.635 0-1.5346 1.3406-0.01764 0.77611-0.01764 2.2754 0 0.81139-0.01764 1.2524zm-3.369 7.9375q0.47625 0 0.79375-2.0814 0.3175-2.0638 0.4057-5.1506-0.75847 1.7639-1.1994 3.369-0.44097 1.6051-0.44097 2.6988 0 0.56445 0.14111 0.86431 0.12347 0.29986 0.29986 0.29986z"/><path d="m86.641 127.3q0.2293 0 0.35278 0.21166 0.14111 0.21167 0.14111 0.58209 0 0.70555-0.33514 1.0936-0.75847 0.93486-1.6581 1.5346-0.88194 0.59973-2.0108 0.59973-1.5522 0-2.3107-1.4111-0.74083-1.4111-0.74083-3.6513 0-2.1519 0.5468-4.9036 0.56444-2.7517 1.6404-4.7272 1.0936-1.9756 2.5929-1.9756 0.84667 0 1.3229 0.79375 0.49389 0.77611 0.49389 2.2401 0 2.099-1.1642 4.8683-1.1642 2.7693-3.1574 5.4857 0.12347 0.7232 0.40569 1.0407 0.28222 0.29986 0.74083 0.29986 0.7232 0 1.27-0.4057 0.54681-0.42333 1.3935-1.4288 0.21167-0.24694 0.47625-0.24694zm-2.1696-10.901q-0.4057 0-0.91722 1.464-0.51153 1.464-0.89958 3.6336-0.38806 2.1696-0.42333 4.1628 1.2524-2.0638 1.9932-4.1275 0.74083-2.0814 0.74083-3.7924 0-1.3406-0.49389-1.3406z"/><path d="m87.699 131.33q-1.0936 0-1.7463-0.79375-0.65264-0.79375-0.65264-2.0814 0-1.4111 0.65264-2.6635 0.65264-1.27 1.7286-2.0285 1.0936-0.77611 2.3107-0.77611 0.38806 0 0.51153 0.15875 0.14111 0.14111 0.2293 0.52916 0.37042-0.0705 0.77611-0.0705 0.86431 0 0.86431 0.61736 0 0.37042-0.26458 1.7639-0.4057 2.0285-0.4057 2.8222 0 0.26459 0.12347 0.42334 0.14111 0.15875 0.35278 0.15875 0.33514 0 0.81139-0.42334 0.47625-0.44097 1.2876-1.4111 0.21167-0.24694 0.47625-0.24694 0.2293 0 0.35278 0.21166 0.14111 0.21167 0.14111 0.58209 0 0.70555-0.33514 1.0936-0.7232 0.89958-1.5346 1.517-0.81139 0.61736-1.5699 0.61736-0.58208 0-1.076-0.38806-0.47625-0.40569-0.7232-1.0936-0.91722 1.4817-2.3107 1.4817zm0.635-1.7815q0.38806 0 0.74083-0.45861t0.51153-1.2171l0.65264-3.2456q-0.74083 0.0176-1.3758 0.56444-0.61736 0.52917-0.98778 1.4111-0.37042 0.88195-0.37042 1.8697 0 0.5468 0.21167 0.81138 0.22931 0.26459 0.61736 0.26459z"/><path d="m101.69 127.3q0.22931 0 0.35278 0.21166 0.14111 0.21167 0.14111 0.58209 0 0.70555-0.33514 1.0936-0.75847 0.93486-1.658 1.5346-0.89959 0.59973-2.0638 0.59973-3.5983 0-3.5983-5.0624 0-0.77611 0.05292-1.5699h-0.68792q-0.52917 0-0.7232-0.19403-0.17639-0.19403-0.17639-0.61736 0-0.98778 0.79375-0.98778h1.0054q0.29986-1.9403 0.91722-3.5454 0.61736-1.6051 1.4817-2.5576 0.88194-0.9525 1.8874-0.9525 0.74083 0 1.1642 0.65264 0.42334 0.65264 0.42334 1.6404 0 2.734-2.2931 4.7625h1.9756q0.28222 0 0.40569 0.12348 0.12347 0.12347 0.12347 0.45861 0 1.2171-1.9932 1.2171h-2.1519q-0.03528 0.88195-0.03528 1.3758 0 1.8344 0.42333 2.5753 0.44097 0.74084 1.3758 0.74084 0.75847 0 1.3406-0.45861 0.58208-0.45861 1.3758-1.3758 0.21167-0.24694 0.47625-0.24694zm-3.0868-9.772q-0.26458 0-0.59972 0.67028-0.3175 0.65263-0.61736 1.8344-0.28222 1.1642-0.47625 2.5929 1.0407-0.89958 1.5522-2.0108 0.52917-1.1289 0.52917-2.0461 0-1.0407-0.38806-1.0407z"/><path d="m107.07 127.83q0.22931 0 0.35278 0.21167 0.14111 0.21167 0.14111 0.58209 0 0.635-0.29986 1.0936-0.49389 0.75847-1.3053 1.1818-0.79375 0.42334-1.905 0.42334-1.6933 0-2.6282-1.0054-0.93486-1.0231-0.93486-2.7517 0-1.2171 0.51153-2.2578 0.51153-1.0583 1.4111-1.6757 0.91723-0.61736 2.0638-0.61736 1.0231 0 1.6404 0.61736 0.61736 0.59972 0.61736 1.6404 0 1.2171-0.88194 2.099-0.86431 0.86431-2.9633 1.3758 0.42334 0.81139 1.4288 0.81139 0.7232 0 1.1818-0.33514 0.47625-0.33514 1.0936-1.1289 0.21167-0.26459 0.47625-0.26459zm-2.8928-3.0868q-0.65264 0-1.1112 0.75847-0.44097 0.75847-0.44097 1.8344v0.0353q1.0407-0.24694 1.6404-0.74083t0.59972-1.1465q0-0.33514-0.19403-0.52917-0.17639-0.21166-0.49389-0.21166z"/></g><g transform="matrix(1.0288 -.11045 .11829 .99399 -.32893 -4.4794)" style="stroke-width:.26458" aria-label="Components"><path d="m36.839 148.83q-2.099 0-3.6513-0.75847-1.5522-0.77611-2.3813-2.1872-0.82903-1.4111-0.82903-3.2808 0-2.5929 0.97014-4.6038 0.98778-2.0108 2.6635-3.1044 1.6757-1.1112 3.7218-1.1112 1.905 0 2.8928 0.98778 0.98778 0.97014 0.98778 2.5753 0 1.076-0.38806 1.7286-0.37042 0.65264-1.076 0.65264-0.49389 0-0.77611-0.22931-0.28222-0.2293-0.28222-0.67028 0-0.15875 0.07056-0.58208 0.10583-0.52917 0.10583-0.84667 0-1.6051-1.711-1.6051-1.1642 0-2.2225 0.75848-1.0583 0.75847-1.711 2.2401-0.65264 1.464-0.65264 3.4925 0 2.1167 1.1818 3.2808 1.1818 1.1465 3.4925 1.1465 1.1465 0 2.3107-0.28222 1.1818-0.29986 2.6106-0.89958 0.26458-0.10584 0.44097-0.10584 0.28222 0 0.42333 0.21167t0.14111 0.54681q0 1.076-1.1642 1.5875-1.2524 0.5468-2.6106 0.81139-1.3406 0.24694-2.5576 0.24694z"/><path d="m50.615 143.33q0.22931 0 0.35278 0.22931 0.12347 0.22931 0.12347 0.58208 0 0.84667-0.51153 1.0054-1.0583 0.37042-2.3283 0.42333-0.33514 1.4817-1.3229 2.3813-0.98778 0.88194-2.2401 0.88194-1.0583 0-1.8168-0.51153-0.74083-0.51153-1.1289-1.3582-0.38806-0.84667-0.38806-1.8344 0-1.3406 0.51153-2.3812 0.51153-1.0583 1.4111-1.6404 0.89958-0.59972 1.9932-0.59972 1.3406 0 2.1519 0.93486 0.82903 0.91722 0.97014 2.2754 0.82903-0.0529 1.9756-0.35278 0.14111-0.0353 0.24694-0.0353zm-5.7856 3.6336q0.56444 0 0.97014-0.45861 0.42333-0.45862 0.56444-1.3229-0.54681-0.37042-0.84667-0.97014-0.28222-0.59972-0.28222-1.27 0-0.28222 0.05292-0.56445h-0.08819q-0.70556 0-1.1818 0.68792-0.45861 0.67028-0.45861 1.905 0 0.97014 0.37042 1.4817 0.38806 0.51153 0.89958 0.51153z"/><path d="m50.827 148.83q-0.67028 0-0.9525-0.70555-0.26458-0.70556-0.26458-2.2578 0-2.2931 0.65264-4.3568 0.15875-0.51153 0.51153-0.74084 0.37042-0.24694 1.0231-0.24694 0.35278 0 0.49389 0.0882t0.14111 0.33514q0 0.28223-0.26458 1.27-0.17639 0.70556-0.28222 1.2347-0.10583 0.51152-0.17639 1.2876 0.47625-1.3758 1.1289-2.3283 0.67028-0.9525 1.3582-1.4111 0.70556-0.47625 1.3229-0.47625 0.61736 0 0.86431 0.28222 0.26458 0.28222 0.26458 0.86431 0 0.56444-0.33514 2.0461-0.14111 0.635-0.19403 0.9525 0.88194-2.1696 1.9579-3.1574t2.0108-0.98778q1.1465 0 1.1465 1.1465 0 0.68791-0.38806 2.4871-0.33514 1.5346-0.33514 2.0285 0 0.70555 0.51153 0.70555 0.35278 0 0.82903-0.42333 0.49389-0.44097 1.3053-1.4111 0.21167-0.24695 0.47625-0.24695 0.22931 0 0.35278 0.21167 0.14111 0.21167 0.14111 0.58208 0 0.70556-0.33514 1.0936-0.75847 0.93487-1.6404 1.5346-0.86431 0.59972-1.9756 0.59972-0.89958 0-1.3582-0.51153-0.45861-0.52916-0.45861-1.5169 0-0.49389 0.24694-1.7639 0.22931-1.1112 0.22931-1.5346 0-0.28222-0.19403-0.28222-0.22931 0-0.65264 0.59972-0.42333 0.58209-0.84667 1.5522-0.42333 0.97014-0.68792 2.0461-0.19403 0.84667-0.45861 1.1289-0.24694 0.28222-0.81139 0.28222-0.58208 0-0.88194-0.5468-0.28222-0.56445-0.28222-1.3582 0-0.67028 0.17639-1.9403 0.14111-1.1289 0.14111-1.4817 0-0.28222-0.19403-0.28222-0.26458 0-0.67028 0.635-0.40569 0.635-0.79375 1.6228-0.37042 0.98778-0.59972 1.9403-0.19403 0.82903-0.45861 1.1289-0.24694 0.28222-0.79375 0.28222z"/><path d="m72.117 144.81q0.22931 0 0.35278 0.21167 0.14111 0.21167 0.14111 0.58208 0 0.70556-0.33514 1.0936-0.75847 0.93487-1.6404 1.5346-0.86431 0.59972-1.9756 0.59972-0.93486 0-1.5169-0.67028-1.0054 0.65264-2.099 0.67028-0.22931 3.4043-1.0407 5.6797-0.81139 2.293-2.3813 2.293-0.9525 0-1.4111-0.68791-0.45861-0.68792-0.45861-1.905 0-1.7286 0.79375-4.0393 0.79375-2.2931 2.4518-5.0624 0-2.5753-0.03528-3.5807-0.01764-0.51153 0.40569-0.81139t1.0583-0.29986q0.37042 0 0.52917 0.15875 0.17639 0.14111 0.19403 0.58208 0 0.44097 0.01764 0.65264 0.56444-0.70556 1.1113-1.0054 0.54681-0.3175 1.1642-0.3175 0.98778 0 1.6051 0.79375 0.635 0.79375 0.635 2.0814 0 0.93486-0.29986 1.8168-0.29986 0.88194-0.82903 1.6051 0.37042 0.10583 0.61736 0.10583 0.58208 0 1.1113-0.42333 0.52917-0.42334 1.3582-1.4111 0.21167-0.24695 0.47625-0.24695zm-6.985 2.3283q0.635-0.14111 1.1642-0.68792 0.54681-0.56445 0.86431-1.3758 0.3175-0.82903 0.3175-1.7286 0-0.52916-0.21167-0.79375-0.21167-0.28222-0.56444-0.28222-0.635 0-1.5346 1.3406-0.01764 0.77611-0.01764 2.2754 0 0.81139-0.01764 1.2524zm-3.369 7.9375q0.47625 0 0.79375-2.0814 0.3175-2.0638 0.4057-5.1506-0.75847 1.7639-1.1994 3.369-0.44097 1.6051-0.44097 2.6988 0 0.56445 0.14111 0.86431 0.12347 0.29986 0.29986 0.29986z"/><path d="m80.178 143.33q0.2293 0 0.35278 0.22931 0.12347 0.22931 0.12347 0.58208 0 0.84667-0.51153 1.0054-1.0583 0.37042-2.3283 0.42333-0.33514 1.4817-1.3229 2.3813-0.98778 0.88194-2.2401 0.88194-1.0583 0-1.8168-0.51153-0.74083-0.51153-1.1289-1.3582-0.38806-0.84667-0.38806-1.8344 0-1.3406 0.51153-2.3812 0.51153-1.0583 1.4111-1.6404 0.89958-0.59972 1.9932-0.59972 1.3406 0 2.1519 0.93486 0.82903 0.91722 0.97014 2.2754 0.82903-0.0529 1.9756-0.35278 0.14111-0.0353 0.24694-0.0353zm-5.7856 3.6336q0.56444 0 0.97014-0.45861 0.42333-0.45862 0.56444-1.3229-0.5468-0.37042-0.84667-0.97014-0.28222-0.59972-0.28222-1.27 0-0.28222 0.05292-0.56445h-0.08819q-0.70556 0-1.1818 0.68792-0.45861 0.67028-0.45861 1.905 0 0.97014 0.37042 1.4817 0.38806 0.51153 0.89958 0.51153z"/><path d="m80.389 148.83q-0.67028 0-0.9525-0.70555-0.26458-0.70556-0.26458-2.2578 0-2.2931 0.65264-4.3568 0.15875-0.51153 0.51153-0.74084 0.37042-0.24694 1.0231-0.24694 0.35278 0 0.49389 0.0882t0.14111 0.33514q0 0.28223-0.26458 1.27-0.17639 0.70556-0.28222 1.2347-0.10583 0.52916-0.17639 1.3053 0.58208-1.517 1.3053-2.4694t1.4111-1.3582q0.70556-0.40569 1.2876-0.40569 1.1465 0 1.1465 1.1465 0 0.68791-0.38806 2.4871-0.33514 1.5346-0.33514 2.0285 0 0.70555 0.51153 0.70555 0.35278 0 0.82903-0.42333 0.49389-0.44097 1.3053-1.4111 0.21167-0.24695 0.47625-0.24695 0.22931 0 0.35278 0.21167 0.14111 0.21167 0.14111 0.58208 0 0.70556-0.33514 1.0936-0.75847 0.93487-1.6404 1.5346-0.86431 0.59972-1.9756 0.59972-0.89958 0-1.3582-0.51153-0.45861-0.52916-0.45861-1.5169 0-0.49389 0.24694-1.7639 0.22931-1.1112 0.22931-1.5346 0-0.28222-0.19403-0.28222-0.22931 0-0.65264 0.59972-0.4057 0.58209-0.84667 1.5522-0.42333 0.97014-0.68792 2.0461-0.19403 0.82903-0.45861 1.1289-0.24694 0.28222-0.79375 0.28222z"/><path d="m95.753 144.81q0.22931 0 0.35278 0.21167 0.14111 0.21167 0.14111 0.58208 0 0.70556-0.33514 1.0936-0.65264 0.79375-1.8521 1.464-1.1818 0.67028-2.54 0.67028-1.8521 0-2.8751-1.0054-1.0231-1.0054-1.0231-2.7517 0-1.2171 0.51153-2.2578 0.51153-1.0583 1.4111-1.6757 0.91722-0.61736 2.0638-0.61736 1.0231 0 1.6404 0.61736 0.61736 0.59972 0.61736 1.6404 0 1.2171-0.88194 2.099-0.86431 0.8643-2.9457 1.3758 0.44097 0.81139 1.6757 0.81139 0.79375 0 1.7992-0.5468 1.0231-0.56445 1.7639-1.464 0.21167-0.24695 0.47625-0.24695zm-4.445-2.5576q-0.65264 0-1.1113 0.75847-0.44097 0.75848-0.44097 1.8344v0.0353q1.0407-0.24695 1.6404-0.74084 0.59972-0.49389 0.59972-1.1465 0-0.33514-0.19403-0.52917-0.17639-0.21167-0.49389-0.21167z"/><path d="m96.07 148.83q-0.67028 0-0.9525-0.70555-0.26458-0.70556-0.26458-2.2578 0-2.2931 0.65264-4.3568 0.15875-0.51153 0.51153-0.74084 0.37042-0.24694 1.0231-0.24694 0.35278 0 0.49389 0.0882t0.14111 0.33514q0 0.28223-0.26458 1.27-0.17639 0.70556-0.28222 1.2347-0.10583 0.52916-0.17639 1.3053 0.58208-1.517 1.3053-2.4694t1.4111-1.3582q0.70555-0.40569 1.2876-0.40569 1.1465 0 1.1465 1.1465 0 0.68791-0.38806 2.4871-0.33514 1.5346-0.33514 2.0285 0 0.70555 0.51153 0.70555 0.35278 0 0.82903-0.42333 0.49389-0.44097 1.3053-1.4111 0.21166-0.24695 0.47625-0.24695 0.2293 0 0.35277 0.21167 0.14112 0.21167 0.14112 0.58208 0 0.70556-0.33514 1.0936-0.75848 0.93487-1.6404 1.5346-0.86431 0.59972-1.9756 0.59972-0.89958 0-1.3582-0.51153-0.45861-0.52916-0.45861-1.5169 0-0.49389 0.24694-1.7639 0.22931-1.1112 0.22931-1.5346 0-0.28222-0.19403-0.28222-0.22931 0-0.65264 0.59972-0.4057 0.58209-0.84667 1.5522-0.42333 0.97014-0.68792 2.0461-0.19403 0.82903-0.45861 1.1289-0.24694 0.28222-0.79375 0.28222z"/><path d="m111.43 144.81q0.22931 0 0.35278 0.21167 0.14111 0.21167 0.14111 0.58208 0 0.70556-0.33514 1.0936-0.75847 0.93487-1.658 1.5346-0.89959 0.59972-2.0638 0.59972-3.5983 0-3.5983-5.0624 0-0.77611 0.0529-1.5699h-0.68792q-0.52917 0-0.7232-0.19402-0.17639-0.19403-0.17639-0.61736 0-0.98778 0.79375-0.98778h1.0054q0.29986-1.9403 0.91723-3.5454 0.61736-1.6051 1.4817-2.5576 0.88195-0.9525 1.8874-0.9525 0.74083 0 1.1642 0.65264 0.42334 0.65264 0.42334 1.6404 0 2.734-2.2931 4.7625h1.9756q0.28222 0 0.40569 0.12347t0.12347 0.45861q0 1.2171-1.9932 1.2171h-2.152q-0.0353 0.88195-0.0353 1.3758 0 1.8344 0.42334 2.5753 0.44097 0.74083 1.3758 0.74083 0.75847 0 1.3406-0.45861 0.58208-0.45861 1.3758-1.3758 0.21167-0.24695 0.47625-0.24695zm-3.0868-9.772q-0.26458 0-0.59972 0.67028-0.3175 0.65264-0.61736 1.8344-0.28222 1.1642-0.47625 2.5929 1.0407-0.89958 1.5522-2.0108 0.52917-1.1289 0.52917-2.0461 0-1.0407-0.38806-1.0407z"/><path d="m113.78 149.22q-0.91722 0-1.4111-0.42334-0.47625-0.42333-0.47625-0.9525 0-0.45861 0.33514-0.79375t0.98778-0.33514q0.2293 0 0.52916 0.0529 0.3175 0.0353 0.47625 0.0529-0.0176-0.45861-0.21166-0.86431-0.17639-0.40569-0.45861-0.77611-0.28223-0.38806-0.52917-0.67028-0.54681 1.0407-1.0936 1.7286-0.52917 0.68792-1.1642 1.3053-0.3175 0.3175-0.67028 0.3175-0.28222 0-0.45861-0.19403-0.17639-0.21166-0.17639-0.51152 0-0.35278 0.24695-0.65264l0.2293-0.28223q0.97014-1.1994 1.464-1.9756 0.3175-0.51153 0.635-1.2171 0.33514-0.70555 0.86431-1.9226 0.33514-0.77611 1.3935-0.77611 0.49389 0 0.68792 0.0882 0.19402 0.0882 0.19402 0.28222 0 0.10583-0.0706 0.33514-0.0706 0.2293-0.19403 0.45861-0.3175 0.635-0.3175 1.076 0 0.26458 0.17639 0.58209 0.19403 0.3175 0.58208 0.79375 0.56445 0.74083 0.84667 1.27 0.29986 0.51152 0.29986 1.1289 0 0.74083-0.35278 1.4111-0.33513 0.65264-0.9525 1.0583-0.61736 0.4057-1.4111 0.4057z"/></g><g transform="matrix(.17717 0 0 .17717 27.312 96.097)"><path d="m4 12h128v112h-128z" style="fill:#fff"/><path d="m4 12h128v16h-128z" style="fill:#55b2ff"/><path d="m1.6901 127.07c-0.30731-0.12527-0.81332-0.55156-1.1244-0.94732l-0.56569-0.71956v-57.529c0-44.038 0.0741-57.691 0.31608-58.223 0.70587-1.5501-4.0276-1.4486 67.561-1.4486h65.787l0.90134 0.90182 0.90133 0.90182-0.1358 115.72-1.4672 1.468h-56.651l-0.77202-0.86452c-0.42462-0.47549-0.77203-1.1664-0.77203-1.5353 0-0.87757 0.66655-2.1461 1.3082-2.4897 0.33934-0.1817 9.2903-0.27256 26.852-0.27256h26.343v-88.681h-124.88v88.681h26.343c17.561 0 26.512 0.0909 26.852 0.27256 1.419 0.75985 1.613 3.0708 0.35689 4.2515l-0.67866 0.63796-27.958 0.0513c-15.377 0.0282-28.209-0.0513-28.516-0.17654zm128.48-106.29v-7.2798h-124.88v14.56h124.88z"/><path d="m92.311 45.905h26.316v26.316h-26.316z" style="fill:#90d73b;stroke-width:4.27;stroke:#000"/><path d="m17.147 45.887h64.319v64.319h-64.319z" style="fill:#fff;stroke-width:4.2355;stroke:#000"/><path d="m25.854 53.803h35.304v35.304h-35.304z" style="fill:#90d73b;stroke-width:4.2471;stroke:#000"/><path d="m92.311 83.873h26.316v26.316h-26.316z" style="fill:#90d73b;stroke-width:4.27;stroke:#000"/></g></g></svg>
