<?xml version="1.0" encoding="UTF-8" standalone="no"?>
<svg
   width="84.99939mm"
   height="24mm"
   viewBox="0 0 84.99939 24"
   version="1.1"
   id="svg8"
   xmlns="http://www.w3.org/2000/svg"
   xmlns:svg="http://www.w3.org/2000/svg">
  <defs
     id="defs8" />
  <g
     transform="matrix(0.46943,0,0,0.47617,-462.947,-45.454)"
     id="g1">
    <path
       d="m 1054.78,135.02 c 6.991,0 10.976,-3.75 10.976,-10.273 v -18.691 h -8.281 v 18.632 c 0,2.227 -0.957,3.399 -2.813,3.399 -1.836,0 -3.027,-1.27 -3.027,-3.496 v -0.04 h -7.93 v 0.06 c 0,6.523 4.316,10.41 11.074,10.41 z m 18.964,-25.273 c 2.246,0 4.082,-1.758 4.082,-3.984 0,-2.247 -1.836,-4.004 -4.082,-4.004 -2.226,0 -4.082,1.757 -4.082,4.004 0,2.226 1.856,3.984 4.082,3.984 z m -4.004,24.492 h 8.008 v -21.953 h -8.008 z m 11.29,0.001 h 8.007 v -12.403 c 0,-2.13 1.074,-3.653 2.988,-3.653 2.032,0 2.95,1.368 2.95,3.653 v 12.402 h 8.007 v -14.18 c 0,-5.273 -2.5,-8.32 -7.343,-8.32 -3.047,0 -5.313,1.602 -6.211,4.024 h -0.39 v -3.477 h -8.009 z m 29.042,-24.493 c 2.246,0 4.082,-1.758 4.082,-3.984 0,-2.247 -1.836,-4.004 -4.082,-4.004 -2.226,0 -4.082,1.757 -4.082,4.004 0,2.226 1.856,3.984 4.082,3.984 z m -4.804,31.914 c 5.566,0 8.808,-2.598 8.808,-7.05 v -22.325 h -8.008 v 21.973 c 0,1.23 -0.703,1.757 -2.324,1.757 -0.332,0 -0.683,-0.019 -0.918,-0.058 v 5.586 c 0.469,0.058 1.64,0.117 2.442,0.117 z m 18.027,-7.109 c 2.773,0 5.117,-1.153 5.957,-2.891 h 0.39 v 2.578 h 7.852 v -14.941 c 0,-4.805 -3.574,-7.559 -9.844,-7.559 -6.308,0 -10.234,2.754 -10.566,6.992 l -0.02,0.254 h 7.148 l 0.04,-0.097 c 0.37,-0.918 1.328,-1.426 2.91,-1.426 1.543,0 2.48,0.703 2.48,1.836 v 1.62 l -4.336,0.255 c -5.82,0.351 -9.004,2.695 -9.004,6.68 v 0.038 c 0,4.004 2.793,6.66 6.992,6.66 z m 0.645,-7.266 v -0.04 c 0,-1.054 0.976,-1.757 2.656,-1.874 l 3.047,-0.195 v 1.27 c 0,1.523 -1.426,2.714 -3.223,2.714 -1.523,0 -2.48,-0.742 -2.48,-1.875 z m 15.468,6.954 h 8.75 l 4.824,-8.497 h 0.157 l 4.863,8.496 h 9.219 l -8.692,-14.082 v -0.156 l 8.73,-13.945 h -9.179 l -4.453,8.984 h -0.156 l -4.434,-8.984 h -9.648 l 8.32,13.906 v 0.156 z"
       aria-label="JinjaX"
       style="font-weight:900;font-family:'SF Pro Text';fill:#000000;fill-opacity:1;stroke:none;stroke-width:1.44682;stroke-miterlimit:4;stroke-dasharray:none;stroke-dashoffset:0;stroke-opacity:1"
       id="path1" />
  </g>
  <g
     id="g2"
     transform="scale(0.09375)">
    <rect
       width="256"
       height="256"
       fill="#a9a9a9"
       opacity="0.8"
       x="0"
       y="0"
       id="rect1"
       ry="20"
       style="opacity:1;stroke-width:0.721198"
       rx="20" />
    <rect
       x="136"
       y="10"
       width="110"
       height="236"
       rx="10.329059"
       ry="10"
       fill="#ffffff"
       id="rect12"
       style="stroke-width:0.761226" />
    <rect
       x="100"
       y="10"
       width="80"
       height="110"
       fill="#ff7f6e"
       rx="0"
       ry="0"
       id="rect11"
       style="stroke-width:0.741618" />
    <rect
       x="36"
       y="114.1656"
       width="210"
       height="120"
       fill="#ffd166"
       rx="0"
       ry="0"
       id="rect13"
       style="stroke-width:1.52753" />
    <rect
       x="126"
       y="114.16561"
       width="120"
       height="40"
       fill="#cce6ff"
       rx="0"
       ry="0"
       id="rect16"
       style="stroke-width:0.8" />
    <rect
       x="126"
       y="154.1656"
       width="120"
       height="40"
       fill="#4dbd9c"
       rx="0"
       ry="0"
       id="rect17"
       style="stroke-width:0.730297" />
    <rect
       x="126"
       y="74.165611"
       width="120"
       height="40"
       fill="#4a9af8"
       rx="0"
       ry="0"
       id="rect15"
       style="stroke-width:0.8" />
    <rect
       x="10"
       y="10"
       width="100"
       height="236"
       rx="9.3900537"
       ry="10"
       fill="#ffffff"
       id="rect12-6"
       style="stroke-width:0.725801" />
    <rect
       x="53.094391"
       y="35.81208"
       width="22.820501"
       height="22.125"
       fill="none"
       stroke="#000000"
       stroke-width="2.24701"
       id="rect3"
       style="fill:#ffffff;fill-opacity:1" />
  </g>
</svg>
