<svg xmlns="http://www.w3.org/2000/svg" width="87mm" height="24mm" viewBox="0 0 87 24">
<g transform="matrix(.46943 0 0 .47617 -461.947 -45.454)">
  <path d="M1054.78 135.02c6.991 0 10.976-3.75 10.976-10.273v-18.691h-8.281v18.632c0 2.227-.957 3.399-2.813 3.399-1.836 0-3.027-1.27-3.027-3.496v-.04h-7.93v.06c0 6.523 4.316 10.41 11.074 10.41zm18.964-25.273c2.246 0 4.082-1.758 4.082-3.984 0-2.247-1.836-4.004-4.082-4.004-2.226 0-4.082 1.757-4.082 4.004 0 2.226 1.856 3.984 4.082 3.984zm-4.004 24.492h8.008v-21.953h-8.008zm11.29.001h8.007v-12.403c0-2.13 1.074-3.653 2.988-3.653 2.032 0 2.95 1.368 2.95 3.653v12.402h8.007v-14.18c0-5.273-2.5-8.32-7.343-8.32-3.047 0-5.313 1.602-6.211 4.024h-.39v-3.477h-8.009zm29.042-24.493c2.246 0 4.082-1.758 4.082-3.984 0-2.247-1.836-4.004-4.082-4.004-2.226 0-4.082 1.757-4.082 4.004 0 2.226 1.856 3.984 4.082 3.984zm-4.804 31.914c5.566 0 8.808-2.598 8.808-7.05v-22.325h-8.008v21.973c0 1.23-.703 1.757-2.324 1.757-.332 0-.683-.019-.918-.058v5.586c.469.058 1.64.117 2.442.117zm18.027-7.109c2.773 0 5.117-1.153 5.957-2.891h.39v2.578h7.852v-14.941c0-4.805-3.574-7.559-9.844-7.559-6.308 0-10.234 2.754-10.566 6.992l-.02.254h7.148l.04-.097c.37-.918 1.328-1.426 2.91-1.426 1.543 0 2.48.703 2.48 1.836v1.62l-4.336.255c-5.82.351-9.004 2.695-9.004 6.68v.038c0 4.004 2.793 6.66 6.992 6.66zm.645-7.266v-.04c0-1.054.976-1.757 2.656-1.874l3.047-.195v1.27c0 1.523-1.426 2.714-3.223 2.714-1.523 0-2.48-.742-2.48-1.875zm15.468 6.954h8.75l4.824-8.497h.157l4.863 8.496h9.219l-8.692-14.082v-.156l8.73-13.945h-9.179l-4.453 8.984h-.156l-4.434-8.984h-9.648l8.32 13.906v.156z" aria-label="JinjaX" style="font-weight:900;font-family:&quot;SF Pro Text&quot;;fill:#fafafa;fill-opacity:1;stroke:none;stroke-width:1.44682;stroke-miterlimit:4;stroke-dasharray:none;stroke-dashoffset:0;stroke-opacity:1"/>
</g>
<g style="stroke:#999;stroke-width:4">
  <path fill="#222" stroke="none" d="M1.74 1.616h23.704v20.906H1.741Z"/>
  <path fill="#444" stroke="none" d="M1.74 1.616h23.704v2.986H1.741Z"/>
  <path fill="#999" stroke="none" d="M1 23c.003-7.61 0-15.455 0-22h25v22m-.894-.846V5.601H1.98v16.553m23.126-18.9V1.897H1.98v2.718h23.126z"/>
  <path fill="#90d73b" d="M92.311 45.905h26.316v26.316H92.311Z" transform="matrix(.18519 0 0 .18666 1 -.624)"/>
  <path fill="#222" d="M17.147 45.887h64.319v64.319H17.147Z" transform="matrix(.18519 0 0 .18666 1 -.624)"/>
  <path fill="#55b2ff" d="M25.854 53.803h35.304v35.304H25.854Z" transform="matrix(.18519 0 0 .18666 1 -.624)"/>
  <path fill="#555" d="M92.311 83.873h26.316v26.316H92.311Z" transform="matrix(.18519 0 0 .18666 1 -.624)"/>
</g>
</svg>