<svg width="512" height="512" version="1.1" viewBox="0 0 135 135" xmlns="http://www.w3.org/2000/svg">
 <path d="m4 12h128v112h-128z" style="fill:#fff"/>
 <path d="m4 12h128v16h-128z" style="fill:#55b2ff"/>
 <path d="m1.6901 127.07c-0.30731-0.12527-0.81332-0.55156-1.1244-0.94732l-0.56569-0.71956v-57.529c0-44.038 0.0741-57.691 0.31608-58.223 0.70587-1.5501-4.0276-1.4486 67.561-1.4486h65.787l0.90134 0.90182 0.90133 0.90182-0.1358 115.72-1.4672 1.468h-56.651l-0.77202-0.86452c-0.42462-0.47549-0.77203-1.1664-0.77203-1.5353 0-0.87757 0.66655-2.1461 1.3082-2.4897 0.33934-0.1817 9.2903-0.27256 26.852-0.27256h26.343v-88.681h-124.88v88.681h26.343c17.561 0 26.512 0.0909 26.852 0.27256 1.419 0.75985 1.613 3.0708 0.35689 4.2515l-0.67866 0.63796-27.958 0.0513c-15.377 0.0282-28.209-0.0513-28.516-0.17654zm128.48-106.29v-7.2798h-124.88v14.56h124.88z"/>
 <path d="m92.311 45.905h26.316v26.316h-26.316z" style="fill:#90d73b;stroke-width:4.27;stroke:#000"/>
 <path d="m17.147 45.887h64.319v64.319h-64.319z" style="fill:#fff;stroke-width:4.2355;stroke:#000"/>
 <path d="m25.854 53.803h35.304v35.304h-35.304z" style="fill:#90d73b;stroke-width:4.2471;stroke:#000"/>
 <path d="m92.311 83.873h26.316v26.316h-26.316z" style="fill:#90d73b;stroke-width:4.27;stroke:#000"/>
</svg>
